ffmpeg version 7.1.3-0+deb13u1 Copyright (c) 2000-2025 the FFmpeg developers
  built with gcc 14 (Debian 14.2.0-19)
  configuration: --prefix=/usr --extra-version=0+deb13u1 --toolchain=hardened --libdir=/usr/lib/x86_64-linux-gnu --incdir=/usr/include/x86_64-linux-gnu --arch=amd64 --enable-gpl --disable-stripping --disable-libmfx --disable-omx --enable-gnutls --enable-libaom --enable-libass --enable-libbs2b --enable-libcdio --enable-libcodec2 --enable-libdav1d --enable-libflite --enable-libfontconfig --enable-libfreetype --enable-libfribidi --enable-libglslang --enable-libgme --enable-libgsm --enable-libharfbuzz --enable-libmp3lame --enable-libmysofa --enable-libopenjpeg --enable-libopenmpt --enable-libopus --enable-librubberband --enable-libshine --enable-libsnappy --enable-libsoxr --enable-libspeex --enable-libtheora --enable-libtwolame --enable-libvidstab --enable-libvorbis --enable-libvpx --enable-libwebp --enable-libx265 --enable-libxml2 --enable-libxvid --enable-libzimg --enable-openal --enable-opencl --enable-opengl --disable-sndio --enable-libvpl --enable-libdc1394 --enable-libdrm --enable-libiec61883 --enable-chromaprint --enable-frei0r --enable-ladspa --enable-libbluray --enable-libcaca --enable-libdvdnav --enable-libdvdread --enable-libjack --enable-libpulse --enable-librabbitmq --enable-librist --enable-libsrt --enable-libssh --enable-libsvtav1 --enable-libx264 --enable-libzmq --enable-libzvbi --enable-lv2 --enable-sdl2 --enable-libplacebo --enable-librav1e --enable-pocketsphinx --enable-librsvg --enable-libjxl --enable-shared
  libavutil      59. 39.100 / 59. 39.100
  libavcodec     61. 19.101 / 61. 19.101
  libavformat    61.  7.100 / 61.  7.100
  libavdevice    61.  3.100 / 61.  3.100
  libavfilter    10.  4.100 / 10.  4.100
  libswscale      8.  3.100 /  8.  3.100
  libswresample   5.  3.100 /  5.  3.100
  libpostproc    58.  3.100 / 58.  3.100
Input #0, image2, from '/mnt/data/apple_lego_demo/src_frames/frame_%04d.png':
  Duration: 00:00:06.00, start: 0.000000, bitrate: N/A
  Stream #0:0: Video: png, rgb24(pc, gbr/unknown/unknown), 1280x720, 30 fps, 30 tbr, 30 tbn
Stream mapping:
  Stream #0:0 -> #0:0 (png (native) -> h264 (libx264))
Press [q] to stop, [?] for help
[libx264 @ 0x563c9d3b2000] using cpu capabilities: MMX2 SSE2Fast SSSE3 SSE4.2 AVX FMA3 BMI2 AVX2 AVX512
[libx264 @ 0x563c9d3b2000] profile High, level 3.1, 4:2:0, 8-bit
[libx264 @ 0x563c9d3b2000] 264 - core 164 r3108 31e19f9 - H.264/MPEG-4 AVC codec - Copyleft 2003-2023 - http://www.videolan.org/x264.html - options: cabac=1 ref=3 deblock=1:0:0 analyse=0x3:0x113 me=hex subme=7 psy=1 psy_rd=1.00:0.00 mixed_ref=1 me_range=16 chroma_me=1 trellis=1 8x8dct=1 cqm=0 deadzone=21,11 fast_pskip=1 chroma_qp_offset=-2 threads=22 lookahead_threads=3 sliced_threads=0 nr=0 decimate=1 interlaced=0 bluray_compat=0 constrained_intra=0 bframes=3 b_pyramid=2 b_adapt=1 b_bias=0 direct=1 weightb=1 open_gop=0 weightp=2 keyint=250 keyint_min=25 scenecut=40 intra_refresh=0 rc_lookahead=40 rc=crf mbtree=1 crf=23.0 qcomp=0.60 qpmin=0 qpmax=69 qpstep=4 ip_ratio=1.40 aq=1:1.00
Output #0, mp4, to '/mnt/data/apple_lego_demo/lego_promotions_realistic.mp4':
  Metadata:
    encoder         : Lavf61.7.100
  Stream #0:0: Video: h264 (avc1 / 0x31637661), yuv420p(tv, progressive), 1280x720, q=2-31, 30 fps, 15360 tbn
      Metadata:
        encoder         : Lavc61.19.101 libx264
      Side data:
        cpb: bitrate max/min/avg: 0/0/0 buffer size: 0 vbv_delay: N/A
frame=    0 fps=0.0 q=0.0 size=       0KiB time=N/A bitrate=N/A speed=N/A    frame=    0 fps=0.0 q=0.0 size=       0KiB time=N/A bitrate=N/A speed=N/A    frame=    0 fps=0.0 q=0.0 size=       0KiB time=N/A bitrate=N/A speed=N/A    frame=   16 fps=7.9 q=29.0 size=       0KiB time=00:00:00.46 bitrate=   0.8kbits/s speed=0.232x    frame=   37 fps= 15 q=29.0 size=       0KiB time=00:00:01.16 bitrate=   0.3kbits/s speed=0.464x    frame=   57 fps= 19 q=29.0 size=       0KiB time=00:00:01.83 bitrate=   0.2kbits/s speed=0.608x    frame=   71 fps= 20 q=29.0 size=       0KiB time=00:00:02.30 bitrate=   0.2kbits/s speed=0.655x    frame=   88 fps= 22 q=29.0 size=       0KiB time=00:00:02.86 bitrate=   0.1kbits/s speed=0.714x    frame=  106 fps= 23 q=29.0 size=     256KiB time=00:00:03.46 bitrate= 605.1kbits/s speed=0.768x    frame=  141 fps= 28 q=29.0 size=     256KiB time=00:00:04.63 bitrate= 452.7kbits/s speed=0.924x    [out#0/mp4 @ 0x563c9d3b2f00] video:362KiB audio:0KiB subtitle:0KiB other streams:0KiB global headers:0KiB muxing overhead: 0.723946%
frame=  180 fps= 34 q=-1.0 Lsize=     365KiB time=00:00:05.93 bitrate= 503.3kbits/s speed=1.11x    
[libx264 @ 0x563c9d3b2000] frame I:1     Avg QP:15.07  size:  5826
[libx264 @ 0x563c9d3b2000] frame P:85    Avg QP:19.99  size:  2222
[libx264 @ 0x563c9d3b2000] frame B:94    Avg QP:25.93  size:  1864
[libx264 @ 0x563c9d3b2000] consecutive B-frames: 26.7%  5.6% 16.7% 51.1%
[libx264 @ 0x563c9d3b2000] mb I  I16..4: 11.5% 84.1%  4.4%
[libx264 @ 0x563c9d3b2000] mb P  I16..4:  0.3%  1.2%  0.8%  P16..4:  5.3%  0.6%  0.3%  0.0%  0.0%    skip:91.5%
[libx264 @ 0x563c9d3b2000] mb B  I16..4:  0.1%  0.1%  0.7%  B16..8:  7.2%  0.7%  0.1%  direct: 0.1%  skip:91.0%  L0:50.7% L1:48.1% BI: 1.1%
[libx264 @ 0x563c9d3b2000] 8x8 transform intra:52.8% inter:49.1%
[libx264 @ 0x563c9d3b2000] coded y,uvDC,uvAC intra: 24.3% 46.5% 36.9% inter: 0.5% 1.4% 0.6%
[libx264 @ 0x563c9d3b2000] i16 v,h,dc,p: 17% 33%  5% 45%
[libx264 @ 0x563c9d3b2000] i8 v,h,dc,ddl,ddr,vr,hd,vl,hu: 23% 20% 40%  2%  3%  5%  3%  1%  3%
[libx264 @ 0x563c9d3b2000] i4 v,h,dc,ddl,ddr,vr,hd,vl,hu: 22% 23% 43%  2%  2%  1%  3%  2%  3%
[libx264 @ 0x563c9d3b2000] i8c dc,h,v,p: 70% 17% 11%  1%
[libx264 @ 0x563c9d3b2000] Weighted P-Frames: Y:0.0% UV:0.0%
[libx264 @ 0x563c9d3b2000] ref P L0: 70.7%  1.8% 16.0% 11.5%
[libx264 @ 0x563c9d3b2000] ref B L0: 77.3% 17.6%  5.1%
[libx264 @ 0x563c9d3b2000] ref B L1: 94.6%  5.4%
[libx264 @ 0x563c9d3b2000] kb/s:493.22
